# xmcd
#
# Track frame offsets: 
#        150
#        20712
#        42312
#        63337
#        82750
#        102070
#        136417
#        153172
#        177465
#        203750
#        222655
#        242192
#
# Disc length: 3603 seconds
#
# Revision: 0
# Processed by: cddbd v1.5.2PL0 Copyright (c) Steve Scherf et al.
# Submitted via: ExactAudioCopy v0.95a5
#
DISCID=a30e110c
DTITLE=Various Artist - 《日之韵》精选集（1996-2000）
DYEAR=2001
DGENRE=Pop
TTITLE0=SMAP - 夜空的彼方
TTITLE1=久保田利伸 - La La La Lovesong
TTITLE2=KIRORO - 长时间
TTITLE3=GLAY - 诱惑
TTITLE4=WANDS - 明天即使你远去了
TTITLE5=X-JAPAN - Longing，断了的旋律
TTITLE6=HIDE - 粉红色的蜘蛛
TTITLE7=J-FRIENDS - People Of The World
TTITLE8=Change and Aska - 邂逅
TTITLE9=Le Couple - 温暖的诗句
TTITLE10=宇多田光 - First Love
TTITLE11=安室奈美惠 - Can You Celebrate?
EXTD=
EXTT0=
EXTT1=
EXTT2=
EXTT3=
EXTT4=
EXTT5=
EXTT6=
EXTT7=
EXTT8=
EXTT9=
EXTT10=
EXTT11=
PLAYORDER=
